<svg width="293" height="37" viewBox="0 0 293 37" fill="none" xmlns="http://www.w3.org/2000/svg">
<g clip-path="url(#clip0_565_381)">
<path d="M118.255 35.8598L118.585 35.6798L134.125 27.0498L145.205 20.8898C146.205 20.3298 146.825 19.2798 146.825 18.1298C146.825 16.9798 146.205 15.9298 145.205 15.3698L134.135 9.19977L118.625 0.559762L118.335 0.399763C117.865 0.139762 117.335 -0.000235275 116.795 -0.000235322L70.6854 -0.000239353C68.9454 -0.000239505 67.5254 1.40976 67.5254 3.15976C67.5254 4.90976 68.9354 6.31976 70.6854 6.31976L110.205 6.31976C110.205 6.31976 110.195 6.33976 110.185 6.34976C109.935 6.74976 109.695 7.15976 109.465 7.56976C109.405 7.67976 109.345 7.79976 109.295 7.90976C109.135 8.21976 108.975 8.52976 108.835 8.83976C108.765 8.97976 108.705 9.12976 108.635 9.27976C108.505 9.57976 108.375 9.88976 108.265 10.1898C108.215 10.3298 108.155 10.4698 108.105 10.6098C107.965 11.0098 107.825 11.4098 107.705 11.8198C107.695 11.8698 107.675 11.9098 107.665 11.9598C107.565 12.2898 107.485 12.6398 107.405 12.9798L107.405 12.4998C107.105 12.9998 106.255 13.4298 105.645 13.4498C92.0154 13.9798 79.4554 14.4498 65.7654 14.9398C63.4154 7.83976 58.8854 2.99976 51.6154 1.89976C47.5454 1.28976 43.2554 2.00976 39.0854 2.34976C30.4054 3.05976 11.7354 3.96975 3.05544 4.67975C1.00544 4.84975 -0.0445566 5.46975 0.0454432 7.68975C0.135443 10.0098 1.64544 10.0598 3.30544 10.0598C11.8154 10.0598 30.3254 10.0198 38.8354 10.1298C39.8954 10.1398 41.4554 10.6798 41.8954 11.4698C42.9854 13.4098 41.7354 14.9598 39.2654 14.9698C30.9654 14.9998 12.6654 14.9298 4.36543 15.0298C3.01543 15.0498 0.675438 15.5098 0.525438 16.1598C0.475438 16.3698 0.445443 16.5698 0.405443 16.7798L0.185442 16.7798C0.175442 17.3398 0.185439 17.8998 0.245439 18.4498C0.245439 18.7298 0.235439 19.0198 0.245439 19.2998L0.365434 19.2998C0.405434 19.5098 0.435445 19.7198 0.485445 19.9198C0.635444 20.5798 2.97544 21.0398 4.32544 21.0498C12.6154 21.1498 30.9254 21.0798 39.2254 21.1098C41.6954 21.1098 42.9454 22.6598 41.8554 24.6098C41.4154 25.3998 39.8554 25.9398 38.7954 25.9498C30.2954 26.0598 11.7754 26.0198 3.26544 26.0198C1.60544 26.0198 0.095433 26.0698 0.00543282 28.3898C-0.0845674 30.6198 0.965442 31.2398 3.01544 31.3998C11.6954 32.1098 30.3654 33.0198 39.0454 33.7298C43.2154 34.0698 47.5154 34.7898 51.5754 34.1798C58.8454 33.0798 63.3754 28.2498 65.7254 21.1398C79.4154 21.6298 91.9754 22.0998 105.605 22.6298C106.215 22.6498 107.065 23.0798 107.355 23.5798L107.355 23.0898C107.455 23.4998 107.555 23.8998 107.665 24.2998C107.685 24.3598 107.705 24.4198 107.725 24.4798C107.845 24.8698 107.965 25.2598 108.105 25.6398C108.155 25.7798 108.215 25.9298 108.265 26.0698C108.385 26.3698 108.505 26.6698 108.635 26.9698C108.695 27.1198 108.765 27.2698 108.835 27.4098C108.985 27.7298 109.135 28.0398 109.295 28.3498C109.355 28.4598 109.405 28.5698 109.465 28.6798C109.685 29.0898 109.925 29.4998 110.175 29.8898C110.175 29.8998 110.195 29.9198 110.205 29.9398L70.6854 29.9398C68.9454 29.9398 67.5254 31.3498 67.5254 33.0998C67.5254 34.8498 68.9354 36.2598 70.6854 36.2598L116.715 36.2598C117.255 36.2598 117.775 36.1198 118.245 35.8598L118.255 35.8598ZM117.225 28.7598C117.165 28.6898 117.105 28.6298 117.045 28.5598C116.875 28.3698 116.715 28.1798 116.565 27.9898C116.545 27.9698 116.535 27.9498 116.515 27.9298C116.345 27.7098 116.175 27.4898 116.015 27.2698C115.965 27.1998 115.925 27.1398 115.875 27.0698C115.765 26.9098 115.655 26.7498 115.555 26.5898C115.505 26.5098 115.455 26.4198 115.395 26.3398C115.305 26.1898 115.215 26.0398 115.125 25.8898C115.075 25.7998 115.025 25.7098 114.975 25.6098C114.895 25.4598 114.815 25.2998 114.735 25.1498C114.685 25.0598 114.645 24.9698 114.595 24.8698C114.515 24.6998 114.445 24.5298 114.365 24.3698C114.325 24.2898 114.295 24.2098 114.255 24.1198C114.155 23.8798 114.065 23.6498 113.985 23.4098C113.985 23.3898 113.975 23.3798 113.965 23.3598C113.875 23.0998 113.795 22.8398 113.715 22.5798C113.695 22.4998 113.665 22.4098 113.645 22.3298C113.595 22.1498 113.545 21.9698 113.505 21.7798C113.485 21.6798 113.465 21.5798 113.435 21.4798C113.395 21.3098 113.365 21.1398 113.335 20.9698C113.315 20.8598 113.295 20.7598 113.285 20.6498C113.255 20.4798 113.235 20.3098 113.215 20.1398C113.205 20.0398 113.185 19.9298 113.175 19.8298C113.155 19.6398 113.145 19.4498 113.125 19.2698C113.125 19.1798 113.115 19.0898 113.105 18.9998C113.095 18.7198 113.085 18.4398 113.085 18.1598C113.085 17.8798 113.085 17.5998 113.105 17.3198C113.105 17.2298 113.115 17.1398 113.125 17.0498C113.135 16.8598 113.155 16.6698 113.175 16.4898C113.185 16.3798 113.195 16.2798 113.215 16.1798C113.235 16.0098 113.265 15.8298 113.285 15.6598C113.305 15.5498 113.325 15.4498 113.335 15.3398C113.365 15.1698 113.405 14.9998 113.435 14.8298C113.455 14.7298 113.475 14.6198 113.505 14.5198C113.545 14.3398 113.595 14.1598 113.645 13.9798C113.665 13.8898 113.685 13.8098 113.715 13.7198C113.795 13.4598 113.875 13.1998 113.965 12.9398C113.965 12.9298 113.975 12.9098 113.985 12.8998C114.075 12.6598 114.165 12.4198 114.265 12.1798C114.295 12.0998 114.335 12.0098 114.375 11.9298C114.445 11.7598 114.525 11.5998 114.595 11.4298C114.645 11.3298 114.685 11.2398 114.735 11.1498C114.815 10.9998 114.885 10.8498 114.965 10.6998C115.015 10.5998 115.065 10.5098 115.125 10.4098C115.205 10.2598 115.295 10.1198 115.385 9.96976C115.435 9.87976 115.495 9.78976 115.555 9.69976C115.655 9.53976 115.755 9.38976 115.865 9.23976C115.915 9.16976 115.965 9.08976 116.015 9.01976C116.175 8.79976 116.335 8.57976 116.505 8.35976C116.525 8.33976 116.545 8.30976 116.565 8.28976C116.715 8.09976 116.875 7.90976 117.035 7.72976C117.095 7.65976 117.165 7.58976 117.235 7.50976C117.325 7.40976 117.415 7.31976 117.505 7.21976L128.865 13.5498C128.865 13.5498 128.865 13.5698 128.865 13.5898C128.795 13.9298 128.725 14.2798 128.675 14.6298C128.665 14.7098 128.655 14.7898 128.635 14.8798C128.595 15.1598 128.555 15.4398 128.525 15.7198C128.515 15.8098 128.505 15.8998 128.495 15.9898C128.465 16.2798 128.445 16.5798 128.425 16.8798C128.425 16.9398 128.425 16.9998 128.415 17.0698C128.395 17.4398 128.385 17.8098 128.385 18.1798C128.385 18.5498 128.395 18.9098 128.415 19.2798C128.415 19.3398 128.415 19.3898 128.425 19.4498C128.445 19.7498 128.465 20.0598 128.495 20.3598C128.495 20.4398 128.515 20.5298 128.525 20.6098C128.555 20.8998 128.595 21.1898 128.635 21.4798C128.645 21.5498 128.655 21.6298 128.665 21.6998C128.725 22.0498 128.785 22.4098 128.865 22.7598L128.865 22.7798L117.485 29.0998C117.395 28.9998 117.295 28.8998 117.205 28.7998L117.225 28.7598Z" fill="white"/>
<path d="M153.52 5.27002H159.04L161.5 22.88H161.57L164.03 5.27002H169.55V29.88H165.89V11.25H165.82L163.01 29.88H159.78L156.97 11.25H156.9V29.88H153.53V5.27002H153.52Z" fill="white"/>
<path d="M172.43 5.27002H182.98V8.78002H176.3V15.28H181.61V18.8H176.3V26.36H182.98V29.87H172.43V5.27002Z" fill="white"/>
<path d="M185.19 5.27002H190.04L193.8 20H193.87V5.27002H197.32V29.88H193.35L188.71 11.92H188.64V29.88H185.2V5.27002H185.19Z" fill="white"/>
<path d="M201.54 28.63C200.56 27.56 200.06 26.04 200.06 24.04V5.27002H203.93V24.32C203.93 25.16 204.1 25.77 204.44 26.15C204.78 26.53 205.27 26.71 205.9 26.71C206.53 26.71 207.02 26.52 207.36 26.15C207.7 25.77 207.87 25.17 207.87 24.32V5.27002H211.6V24.04C211.6 26.03 211.11 27.56 210.12 28.63C209.14 29.7 207.71 30.23 205.83 30.23C203.95 30.23 202.53 29.7 201.54 28.63Z" fill="white"/>
<path d="M219.96 5.27002H225.48L227.94 22.88H228.01L230.47 5.27002H235.99V29.88H232.33V11.25H232.26L229.45 29.88H226.22L223.41 11.25H223.34V29.88H219.97V5.27002H219.96Z" fill="white"/>
<path d="M241.85 5.27002H247.09L251.1 29.88H247.23L246.53 24.99V25.06H242.14L241.44 29.88H237.86L241.87 5.27002H241.85ZM246.07 21.72L244.35 9.56002H244.28L242.59 21.72H246.07Z" fill="white"/>
<path d="M252.96 5.27002H256.83V15.64L261.75 5.27002H265.62L261.01 14.3L265.69 29.87H261.65L258.38 18.9L256.83 22.03V29.87H252.96V5.27002Z" fill="white"/>
<path d="M267.51 5.27002H278.05V8.78002H271.37V15.28H276.68V18.8H271.37V26.36H278.05V29.87H267.51V5.27002Z" fill="white"/>
<path d="M280.27 5.27002H286C287.99 5.27002 289.44 5.73002 290.36 6.66002C291.28 7.59002 291.73 9.01002 291.73 10.93V12.44C291.73 14.99 290.89 16.61 289.2 17.29V17.36C290.14 17.64 290.8 18.22 291.19 19.08C291.58 19.94 291.77 21.11 291.77 22.56V26.88C291.77 27.58 291.79 28.15 291.84 28.59C291.89 29.02 292 29.45 292.19 29.87H288.25C288.11 29.47 288.02 29.1 287.97 28.75C287.92 28.4 287.9 27.77 287.9 26.85V22.35C287.9 21.23 287.72 20.44 287.36 20C287 19.55 286.37 19.33 285.48 19.33H284.14V29.87H280.27V5.27002ZM285.55 15.82C286.32 15.82 286.9 15.62 287.29 15.22C287.68 14.82 287.87 14.15 287.87 13.22V11.32C287.87 10.43 287.71 9.79002 287.4 9.39002C287.08 8.99002 286.59 8.79002 285.91 8.79002H284.15V15.82H285.56H285.55Z" fill="white"/>
</g>
<defs>
<clipPath id="clip0_565_381">
<rect width="292.19" height="36.26" fill="white"/>
</clipPath>
</defs>
</svg>
