<svg width="52" height="66" viewBox="0 0 52 66" fill="none" xmlns="http://www.w3.org/2000/svg">
<path d="M18 15H26V17.711H20.9346V22.7313H24.9611V25.45H20.9346V31.289H26V34H18V15Z" fill="white"/>
<path d="M28 15H31.9983L35.0981 26.3722H35.1558V15H38V34H34.7271L30.9019 20.1341H30.8442V34H28.0082V15H28Z" fill="white"/>
<path d="M41.1542 33.7179C40.3899 32.8606 40 31.6426 40 30.0401V15H43.0182V30.2644C43.0182 30.9375 43.1508 31.4263 43.4159 31.7308C43.6811 32.0353 44.0633 32.1795 44.5546 32.1795C45.0459 32.1795 45.4281 32.0272 45.6932 31.7308C45.9584 31.4263 46.091 30.9455 46.091 30.2644V15H49V30.0401C49 31.6346 48.6178 32.8606 47.8457 33.7179C47.0814 34.5753 45.9662 35 44.5 35C43.0338 35 41.9263 34.5753 41.1542 33.7179Z" fill="white"/>
<path d="M19.4109 44H22.577L25 60H22.6616L22.2387 56.8208V56.8663H19.5861L19.1631 60H17L19.423 44H19.4109ZM21.9607 54.6948L20.9215 46.7891H20.8792L19.858 54.6948H21.9607Z" fill="white"/>
<path d="M26 44H28.736V50.7447L32.2145 44H34.9505L31.6913 49.8732L35 60H32.1437L29.8319 52.865L28.736 54.9008V60H26V44Z" fill="white"/>
<path d="M36 44H43V46.2829H38.5636V50.5106H42.0901V52.8H38.5636V57.7171H43V60H36V44Z" fill="white"/>
<path d="M44 44H47.8456C49.1812 44 50.1544 44.2992 50.7718 44.9041C51.3893 45.5089 51.6913 46.4325 51.6913 47.6813V48.6634C51.6913 50.322 51.1275 51.3756 49.9933 51.8179V51.8634C50.6242 52.0455 51.0671 52.4228 51.3289 52.9821C51.5906 53.5415 51.7181 54.3024 51.7181 55.2455V58.0553C51.7181 58.5106 51.7315 58.8813 51.7651 59.1675C51.7987 59.4472 51.8725 59.7268 52 60H49.3557C49.2617 59.7398 49.2013 59.4992 49.1678 59.2715C49.1342 59.0439 49.1208 58.6341 49.1208 58.0358V55.1089C49.1208 54.3805 49 53.8667 48.7584 53.5805C48.5168 53.2878 48.094 53.1447 47.4967 53.1447H46.5973V60H44V44ZM47.5436 50.8618C48.0604 50.8618 48.4497 50.7317 48.7114 50.4715C48.9732 50.2114 49.1007 49.7756 49.1007 49.1707V47.935C49.1007 47.3561 48.9933 46.9398 48.7852 46.6797C48.5705 46.4195 48.2416 46.2894 47.7852 46.2894H46.604V50.8618H47.5503H47.5436Z" fill="white"/>
<path d="M15.8235 12.8426L15.7441 12.6943L11.936 5.70882L9.21787 0.728212C8.97077 0.278698 8.50745 -3.2751e-07 8 -3.49691e-07C7.49255 -3.71872e-07 7.02923 0.278698 6.78213 0.728212L4.05957 5.70433L0.247103 12.6763L0.176502 12.8066C0.0617747 13.0179 -5.79445e-07 13.2562 -5.90056e-07 13.4989L-1.49606e-06 34.226C-1.53025e-06 35.0081 0.622172 35.6464 1.39437 35.6464C2.16657 35.6464 2.78875 35.0126 2.78875 34.226L2.78875 16.4612C2.78875 16.4612 2.79757 16.4657 2.80199 16.4702C2.97849 16.5826 3.1594 16.6904 3.34032 16.7938C3.38886 16.8208 3.44181 16.8478 3.49035 16.8702C3.62714 16.9422 3.76393 17.0141 3.90072 17.077C3.96249 17.1085 4.02868 17.1355 4.09487 17.1669C4.22725 17.2254 4.36404 17.2838 4.49641 17.3332C4.55819 17.3557 4.61997 17.3827 4.68174 17.4052C4.85824 17.4681 5.03475 17.531 5.21566 17.585C5.23773 17.5895 5.25538 17.5985 5.27744 17.603C5.42306 17.6479 5.57749 17.6839 5.72752 17.7198L5.51572 17.7198C5.73635 17.8547 5.92609 18.2368 5.93491 18.511C6.16878 24.6378 6.37617 30.2837 6.59239 36.4376C3.45946 37.4939 1.32377 39.5302 0.838387 42.7982C0.569219 44.6277 0.886925 46.5561 1.03695 48.4306C1.35025 52.3324 1.75179 60.7248 2.06508 64.6266C2.1401 65.5481 2.41368 66.0201 3.39327 65.9796C4.41699 65.9392 4.43905 65.2604 4.43905 64.5142C4.43905 60.6888 4.4214 52.3683 4.46994 48.543C4.47435 48.0665 4.71263 47.3653 5.06122 47.1675C5.91726 46.6775 6.60121 47.2394 6.60562 48.3497C6.61886 52.0807 6.58797 60.3068 6.6321 64.0377C6.64092 64.6446 6.8439 65.6964 7.13072 65.7639C7.22338 65.7863 7.31164 65.7998 7.4043 65.8178L7.4043 65.9167C7.6514 65.9212 7.89851 65.9167 8.1412 65.8897C8.26475 65.8897 8.39272 65.8942 8.51627 65.8897L8.51627 65.8358C8.60893 65.8178 8.7016 65.8043 8.78985 65.7818C9.08108 65.7144 9.28406 64.6625 9.28847 64.0557C9.3326 60.3292 9.30171 52.0986 9.31495 48.3677C9.31495 47.2574 9.99889 46.6955 10.8593 47.1855C11.2079 47.3832 11.4462 48.0845 11.4506 48.561C11.4992 52.3818 11.4815 60.7068 11.4815 64.5322C11.4815 65.2784 11.5036 65.9571 12.5273 65.9976C13.5113 66.0381 13.7849 65.5661 13.8555 64.6446C14.1688 60.7428 14.5703 52.3504 14.8836 48.4486C15.0336 46.5741 15.3513 44.6412 15.0822 42.8162C14.5968 39.5482 12.4655 37.5119 9.32818 36.4556C9.5444 30.3017 9.75179 24.6558 9.98566 18.529C9.99448 18.2547 10.1842 17.8727 10.4049 17.7423L10.1886 17.7423C10.3696 17.6974 10.5461 17.6524 10.7226 17.603C10.749 17.594 10.7755 17.585 10.802 17.576C10.9741 17.522 11.1462 17.4681 11.3138 17.4052C11.3756 17.3827 11.4418 17.3557 11.5036 17.3332C11.636 17.2793 11.7683 17.2254 11.9007 17.1669C11.9669 17.14 12.0331 17.1085 12.0949 17.077C12.2361 17.0096 12.3729 16.9422 12.5097 16.8702C12.5582 16.8433 12.6067 16.8208 12.6553 16.7938C12.8362 16.6949 13.0171 16.5871 13.1892 16.4747C13.1936 16.4747 13.2024 16.4657 13.2113 16.4612L13.2113 34.226C13.2113 35.0081 13.8334 35.6464 14.6056 35.6464C15.3778 35.6464 16 35.0126 16 34.226L16 13.5349C16 13.2921 15.9382 13.0584 15.8235 12.8471L15.8235 12.8426ZM12.6906 13.3056C12.6597 13.3326 12.6332 13.3595 12.6023 13.3865C12.5185 13.4629 12.4346 13.5349 12.3508 13.6023C12.342 13.6113 12.3331 13.6158 12.3243 13.6248C12.2272 13.7012 12.1302 13.7776 12.0331 13.8495C12.0022 13.872 11.9757 13.89 11.9448 13.9124C11.8742 13.9619 11.8036 14.0113 11.733 14.0563C11.6977 14.0788 11.658 14.1012 11.6227 14.1282C11.5565 14.1687 11.4903 14.2091 11.4242 14.2496C11.3844 14.2721 11.3447 14.2945 11.3006 14.317C11.2344 14.353 11.1638 14.3889 11.0976 14.4249C11.0579 14.4474 11.0182 14.4653 10.9741 14.4878C10.8991 14.5238 10.824 14.5553 10.7534 14.5912C10.7181 14.6092 10.6828 14.6227 10.6431 14.6407C10.5372 14.6856 10.4357 14.7261 10.3298 14.762C10.321 14.762 10.3166 14.7665 10.3078 14.771C10.193 14.8115 10.0783 14.8474 9.9636 14.8834C9.92829 14.8924 9.88858 14.9059 9.85328 14.9149C9.77385 14.9373 9.69443 14.9598 9.61059 14.9778C9.56646 14.9868 9.52234 14.9958 9.47821 15.0093C9.4032 15.0272 9.32818 15.0407 9.25317 15.0542C9.20463 15.0632 9.16051 15.0722 9.11197 15.0767C9.03695 15.0902 8.96194 15.0992 8.88693 15.1082C8.8428 15.1126 8.79426 15.1216 8.75014 15.1261C8.6663 15.1351 8.58246 15.1396 8.50303 15.1486C8.46332 15.1486 8.42361 15.1531 8.38389 15.1576C8.26034 15.1621 8.13679 15.1666 8.01324 15.1666C7.88968 15.1666 7.76613 15.1666 7.64258 15.1576C7.60287 15.1576 7.56315 15.1531 7.52344 15.1486C7.4396 15.1441 7.35576 15.1351 7.27634 15.1261C7.2278 15.1216 7.18367 15.1171 7.13955 15.1082C7.06453 15.0992 6.98511 15.0857 6.91009 15.0767C6.86155 15.0677 6.81743 15.0587 6.76889 15.0542C6.69388 15.0407 6.61886 15.0227 6.54385 15.0093C6.49972 15.0003 6.45118 14.9913 6.40706 14.9778C6.32763 14.9598 6.24821 14.9373 6.16878 14.9149C6.12907 14.9059 6.09377 14.8969 6.05405 14.8834C5.93933 14.8474 5.8246 14.8115 5.70987 14.771C5.70546 14.771 5.69663 14.7665 5.69222 14.762C5.58632 14.7216 5.48042 14.6811 5.37452 14.6362C5.33922 14.6227 5.2995 14.6047 5.2642 14.5867C5.18919 14.5553 5.11859 14.5193 5.04357 14.4878C4.99945 14.4653 4.95973 14.4474 4.92002 14.4249C4.85383 14.3889 4.78764 14.3575 4.72146 14.3215C4.67733 14.299 4.63762 14.2766 4.59349 14.2496C4.5273 14.2136 4.46553 14.1732 4.39934 14.1327C4.35962 14.1102 4.31991 14.0833 4.2802 14.0563C4.2096 14.0113 4.14341 13.9664 4.07722 13.9169C4.04633 13.8945 4.01103 13.872 3.98014 13.8495C3.88307 13.7776 3.78599 13.7057 3.68891 13.6293C3.68009 13.6203 3.66685 13.6113 3.65803 13.6023C3.57419 13.5349 3.49035 13.4629 3.41092 13.391C3.38003 13.364 3.34914 13.3326 3.31384 13.3011C3.26972 13.2607 2.23 12.2202 2.18588 12.1797L5.97904 5.07326C5.97904 5.07326 5.89553 5.05205 5.99669 5.07326C6.14672 5.10473 6.30116 5.1362 6.4556 5.15867C6.4909 5.16317 6.5262 5.16766 6.56591 5.17665C6.68947 5.19463 6.81302 5.21261 6.93657 5.2261C6.97628 5.23059 7.01599 5.23509 7.05571 5.23959C7.18367 5.25307 7.31605 5.26206 7.44843 5.27105C7.4749 5.27105 7.50138 5.27105 7.53227 5.27555C7.69553 5.28454 7.8588 5.28903 8.02206 5.28903C8.18533 5.28903 8.34418 5.28454 8.50745 5.27555C8.53392 5.27555 8.55598 5.27555 8.58246 5.27105C8.71484 5.26206 8.85163 5.25307 8.984 5.23959C9.0193 5.23959 9.05902 5.23059 9.09432 5.2261C9.22228 5.21261 9.35025 5.19463 9.47821 5.17665C9.5091 5.17216 9.5444 5.16766 9.57529 5.16317C9.72973 5.1362 9.88858 5.10923 10.043 5.07326L10.0518 5.07326L13.8406 12.1887C13.7965 12.2292 12.7523 13.2741 12.7082 13.3146L12.6906 13.3056Z" fill="white"/>
</svg>
